
<svg version="1.0" xmlns="http://www.w3.org/2000/svg"
 width="200" height="200" viewBox="0 0 256.000000 256.000000"
 preserveAspectRatio="xMidYMid meet">

<g transform="translate(0.000000,256.000000) scale(0.100000,-0.100000)"
fill="#000000" stroke="none">
<path d="M1085 1896 c-115 -36 -191 -100 -241 -201 -33 -67 -36 -81 -36 -155
0 -71 4 -90 32 -146 54 -110 136 -163 370 -240 176 -57 233 -82 320 -138 77
-50 110 -91 110 -135 0 -62 -74 -92 -132 -53 -15 10 -69 65 -120 122 -116 129
-183 170 -281 170 -127 0 -201 -44 -256 -153 -32 -62 -35 -76 -39 -177 -4
-107 -4 -110 17 -110 16 0 21 6 21 25 0 38 27 85 56 95 48 18 79 10 212 -58
l134 -67 101 0 c94 0 107 3 169 32 120 57 204 161 226 280 20 110 -13 199
-105 284 -79 72 -152 109 -335 170 -195 64 -284 107 -348 167 -65 60 -75 99
-35 136 36 33 89 34 126 3 14 -12 53 -56 86 -97 110 -137 169 -179 263 -187
194 -18 320 127 320 367 0 62 -2 70 -19 70 -14 0 -22 -11 -29 -43 -15 -57 -40
-78 -94 -80 -35 -1 -59 8 -133 50 -49 29 -110 59 -134 68 -52 18 -170 19 -226
1z"/>
</g>
</svg>
